<svg xmlns="http://www.w3.org/2000/svg"  viewBox="0 0 120 120" width="60px" height="60px" baseProfile="basic"><ellipse cx="60" cy="63.575" opacity=".35" rx="48" ry="48.638"/><ellipse cx="60" cy="59.713" fill="#ff1200" rx="48" ry="48.5"/><path fill="#fff" d="M36.928,102.247c2.341,1.299,4.804,2.399,7.362,3.294l15.478-51.045l-7.656-2.322L36.928,102.247z"/><path d="M65,91.199c-7.779,0-11.839-3.623-13.874-6.663c-4.666-6.967-4.055-18.943,1.676-32.86l7.396,3.047 c-4.559,11.07-5.487,20.789-2.425,25.362c1.403,2.096,3.767,3.114,7.227,3.114c1.638,0,16-0.589,16-21s-20.646-21-23-21 c-5.841,0-21,3.772-21,21c0,5.83,2.068,9.37,3.804,11.313l-5.969,5.328C32.173,75.858,29,70.55,29,62.199 c0-21.127,17.788-29,29-29c10.723,0,31,6.061,31,29S73.301,91.199,65,91.199z" opacity=".35"/><path fill="#fff" d="M66,87.199c-7.779,0-11.839-3.623-13.874-6.663c-4.666-6.967-4.055-18.943,1.676-32.86l7.396,3.047 c-4.559,11.07-5.487,20.789-2.425,25.362c1.403,2.096,3.767,3.114,7.227,3.114c1.638,0,16-0.589,16-21s-20.646-21-23-21 c-5.841,0-21,3.772-21,21c0,5.83,2.068,9.37,3.804,11.313l-5.969,5.328C33.173,71.858,30,66.55,30,58.199 c0-21.127,17.788-29,29-29c10.723,0,31,6.061,31,29S74.301,87.199,66,87.199z"/></svg>